<svg width="44" height="44" viewBox="0 0 44 44" fill="none" xmlns="http://www.w3.org/2000/svg">
<path d="M0.0180398 22.8606C0.255282 28.8134 2.94032 34.3958 7.27097 38.3275C7.31546 38.3675 7.36043 38.407 7.40516 38.4467C7.50871 38.5389 7.61324 38.6295 7.71803 38.7197C11.5641 42.0099 16.5536 44 21.9995 44C22.1967 44 22.3932 43.997 22.5892 43.992C22.6939 43.9891 22.7982 43.9844 22.9025 43.9801C22.9892 43.9767 23.0757 43.9737 23.162 43.9695C23.3058 43.962 23.4492 43.9526 23.5922 43.9424C23.6338 43.9394 23.6753 43.9369 23.7168 43.9337C23.889 43.9203 24.0615 43.9051 24.2325 43.8877C24.239 43.887 24.2459 43.8865 24.2521 43.8858C35.3288 42.754 44 33.3705 44 21.9995C44 9.86898 34.1305 0 21.9998 0C11.9726 0 3.49092 6.74365 0.850857 15.9334C0.84542 15.9535 0.838993 15.9739 0.833556 15.994C0.793275 16.1348 0.755469 16.2768 0.718153 16.4192C0.691957 16.5188 0.666747 16.6191 0.642034 16.7192C0.601753 16.8821 0.563206 17.0455 0.526631 17.2097C0.491539 17.3661 0.458177 17.5231 0.426545 17.6803C0.40801 17.7754 0.389721 17.8706 0.371928 17.9657C0.336094 18.1577 0.302734 18.3504 0.27209 18.5434C0.262947 18.6032 0.253307 18.6626 0.244163 18.7224C0.212284 18.9382 0.183368 19.1548 0.157667 19.3716C0.149265 19.4417 0.141112 19.512 0.133451 19.5822C0.107502 19.8172 0.0845188 20.0526 0.0662314 20.2888C0.0640073 20.3161 0.0625237 20.3437 0.0607938 20.3713C0.0442363 20.5978 0.0318785 20.8243 0.0222405 21.0513C0.021252 21.0684 0.0207571 21.0853 0.0200157 21.1019C0.0177916 21.1509 0.0158138 21.1998 0.0145781 21.2487C0.00617583 21.4986 0 21.7484 0 21.9993C0 22.2404 0.00518611 22.4806 0.0133413 22.7205C0.0143298 22.7674 0.0163099 22.8139 0.0180398 22.8606ZM16.0042 20.0285C14.9868 18.7525 14.476 17.2122 14.476 15.3962C14.476 13.5561 15.0545 12.0106 16.2059 10.7623C17.3555 9.5101 18.8842 8.79136 20.797 8.60136V6.94631H23.2354V8.60136C25.0221 8.81446 26.4414 9.42318 27.5003 10.43C28.5541 11.4354 29.2304 12.7805 29.5208 14.4646L25.2618 15.0159C24.9996 13.6947 24.3232 12.7971 23.2356 12.3257V18.8965C25.9328 19.6202 27.7702 20.5685 28.7424 21.7243C29.7225 22.8851 30.2091 24.3736 30.2091 26.1895C30.2091 28.2191 29.5964 29.9261 28.366 31.3174C27.1353 32.7084 25.4274 33.5707 23.2356 33.9159V37.0542H20.7972V33.9497C18.8731 33.7143 17.311 33.0015 16.1028 31.8002C14.8946 30.5989 14.1278 28.8976 13.7904 26.7074L18.1532 26.1895C18.3304 27.0874 18.6675 27.8573 19.1595 28.5065C19.6513 29.1559 20.196 29.6216 20.7972 29.9147V22.874C18.6163 22.2471 17.0184 21.2989 16.0042 20.0285Z" fill="#096C07"/>
</svg>
