<svg width="24" height="22" viewBox="0 0 24 22" fill="none" xmlns="http://www.w3.org/2000/svg">
<g clip-path="url(#clip0_4831_574)">
<path d="M12.8839 4.42874C12.8839 4.42874 9.92428 1.78238 5.72882 2.29729C5.72882 2.29729 8.32043 3.63598 8.29478 4.48614C8.29003 5.04913 7.24192 4.5593 6.67917 4.36972C6.11657 4.17944 2.54396 3.12914 -0.771881 5.50593C-1.08196 5.78051 0.988478 5.6151 1.72579 6.42116C2.46309 7.22721 1.75145 10.1754 4.55167 11.8244C4.55167 11.8244 2.46496 11.7176 1.5854 12.371C1.5854 12.371 2.86211 12.4612 3.80394 14.2244C4.74507 15.9873 6.04413 17.6451 8.22825 17.6436C10.4124 17.6421 12.8825 4.42842 12.8825 4.42842L12.8839 4.42874Z" fill="black" stroke="black" stroke-width="1.55752" stroke-linecap="round" stroke-linejoin="round"/>
<path d="M12.8839 4.42874C12.8839 4.42874 9.92428 1.78238 5.72882 2.29729C5.72882 2.29729 8.32043 3.63598 8.29478 4.48614C8.29003 5.04913 7.24192 4.5593 6.67917 4.36972C6.11657 4.17944 2.54396 3.12914 -0.771881 5.50593C-1.08196 5.78051 0.988478 5.6151 1.72579 6.42116C2.46309 7.22721 1.75145 10.1754 4.55167 11.8244C4.55167 11.8244 2.46496 11.7176 1.5854 12.371C1.5854 12.371 2.86211 12.4612 3.80394 14.2244C4.74507 15.9873 6.04413 17.6451 8.22825 17.6436C10.4124 17.6421 12.8825 4.42842 12.8825 4.42842L12.8839 4.42874Z" fill="url(#paint0_linear_4831_574)"/>
<g style="mix-blend-mode:multiply">
<path d="M12.694 6.26965C12.694 6.26965 12.051 3.34105 7.72129 2.85775C7.72129 2.85775 9.65404 4.41105 9.33461 7.37041C9.33461 7.37041 7.88424 3.17522 0.339948 5.27744C0.339948 5.27744 2.38311 5.35006 3.35804 7.41124C4.33297 9.47243 5.59244 12.2178 9.04838 12.2702C9.04838 12.2702 4.43168 12.4805 3.19227 8.54038C3.19227 8.54038 3.54104 13.1952 8.80502 13.0038C8.80502 13.0038 8.07487 13.6489 6.8791 13.3138C5.68349 12.978 3.77993 12.5581 3.33134 12.6682C3.33134 12.6682 4.624 13.0064 5.21757 14.6238C5.81113 16.2413 8.11148 17.4643 9.94268 16.3236C11.7739 15.1829 12.6941 6.26895 12.6941 6.26895L12.694 6.26965Z" fill="url(#paint1_linear_4831_574)"/>
</g>
</g>
<g clip-path="url(#clip1_4831_574)">
<path d="M15.4052 21.1669C20.0907 20.9853 23.7432 17.0745 23.5633 12.4317C23.3834 7.78893 19.4393 4.17238 14.7538 4.35392C10.0683 4.53545 6.41584 8.44633 6.59572 13.0891C6.77561 17.7319 10.7198 21.3484 15.4052 21.1669Z" fill="url(#paint2_linear_4831_574)"/>
<g style="mix-blend-mode:overlay" opacity="0.6">
<path d="M15.4052 21.1669C20.0907 20.9853 23.7432 17.0745 23.5633 12.4317C23.3834 7.78893 19.4393 4.17238 14.7538 4.35392C10.0683 4.53545 6.41584 8.44633 6.59572 13.0891C6.77561 17.7319 10.7198 21.3484 15.4052 21.1669Z" fill="#FFE6A9"/>
</g>
<g style="mix-blend-mode:multiply" opacity="0.5">
<path d="M19.933 19.6079C12.9629 22.0082 8.8149 18.6343 7.53369 16.769C9.02532 19.4961 11.9879 21.2975 15.3285 21.168C17.0487 21.1014 18.6297 20.5315 19.9323 19.608L19.933 19.6079Z" fill="url(#paint3_linear_4831_574)"/>
<g style="mix-blend-mode:overlay" opacity="0.6">
<path d="M19.933 19.6092C12.9629 22.0094 8.8149 18.6355 7.53369 16.7703C9.02532 19.4974 11.9879 21.2987 15.3285 21.1693C17.0487 21.1026 18.6297 20.5327 19.9323 19.6092L19.933 19.6092Z" fill="#FFE6A9"/>
</g>
</g>
<g style="mix-blend-mode:soft-light" opacity="0.5">
<path d="M17.1578 18.6947C19.157 18.6172 20.9823 17.9207 22.4495 16.8018C23.1655 15.5095 23.5486 14.0142 23.4874 12.4342C23.3075 7.79171 19.3629 4.1749 14.6779 4.35642C11.6841 4.47241 9.11254 6.11082 7.6923 8.48997C7.62196 8.99887 7.59469 9.52083 7.61527 10.052C7.80784 15.0222 12.0799 18.8914 17.1578 18.6947Z" fill="url(#paint4_linear_4831_574)"/>
</g>
<path d="M10.5774 10.2077C10.5774 10.2077 8.83201 16.5808 13.8013 19.9002C13.8013 19.9002 8.01351 17.0266 10.5774 10.2077Z" fill="url(#paint5_linear_4831_574)"/>
<path d="M12.2687 7.77233C12.3406 7.7677 14.0251 6.09616 16.4774 5.94839C18.9297 5.80061 21.3884 7.04534 22.9664 10.3937C22.9664 10.3937 21.3105 5.2752 16.3851 5.61942C13.7464 5.87382 12.2687 7.77233 12.2687 7.77233Z" fill="url(#paint6_linear_4831_574)"/>
<path d="M17.0422 20.5064C20.7464 20.3629 23.6205 16.9258 23.4618 12.8295C23.3031 8.73316 20.1716 5.52876 16.4675 5.67227C12.7633 5.81579 9.88916 9.25287 10.0479 13.3492C10.2066 17.4456 13.3381 20.65 17.0422 20.5064Z" fill="url(#paint7_linear_4831_574)"/>
<path d="M15.3288 21.1705C20.0143 20.989 23.6668 17.0781 23.4869 12.4354C23.307 7.79259 19.3629 4.17604 14.6774 4.35758C9.99193 4.53912 6.33943 8.44999 6.51931 13.0928C6.69919 17.7355 10.6433 21.3521 15.3288 21.1705Z" stroke="black" stroke-width="0.778761" stroke-linecap="round" stroke-linejoin="round"/>
<path d="M17.2302 19.5279C20.3714 19.4062 22.8074 16.455 22.6711 12.9362C22.5347 9.41743 19.8777 6.66354 16.7365 6.78525C13.5953 6.90695 11.1593 9.85816 11.2957 13.3769C11.432 16.8957 14.089 19.6496 17.2302 19.5279Z" fill="url(#paint8_radial_4831_574)"/>
<g style="mix-blend-mode:overlay" opacity="0.5">
<path d="M20.8274 10.2607C21.1009 9.98581 20.9354 9.38167 20.4578 8.91129C19.9801 8.44091 19.3711 8.2824 19.0976 8.55726C18.824 8.83212 18.9895 9.43625 19.4672 9.90663C19.9449 10.377 20.5538 10.5355 20.8274 10.2607Z" fill="white"/>
</g>
<g style="mix-blend-mode:overlay" opacity="0.5">
<path d="M18.7749 8.27014C18.8498 8.19481 18.8045 8.02929 18.6737 7.90044C18.5429 7.77159 18.376 7.72821 18.301 7.80354C18.2261 7.87887 18.2714 8.04439 18.4022 8.17324C18.533 8.30209 18.6999 8.34548 18.7749 8.27014Z" fill="white"/>
</g>
<path d="M17.2302 19.5279C20.3714 19.4062 22.8074 16.455 22.6711 12.9362C22.5347 9.41743 19.8777 6.66354 16.7365 6.78525C13.5953 6.90695 11.1593 9.85816 11.2957 13.3769C11.432 16.8957 14.089 19.6496 17.2302 19.5279Z" stroke="url(#paint9_linear_4831_574)" stroke-width="0.623009" stroke-miterlimit="10"/>
</g>
<g clip-path="url(#clip2_4831_574)">
<path d="M13.0656 12.2067C13.0656 12.2067 14.3312 11.3146 16.0823 11.7754C17.8333 12.2362 18.1809 14.3523 18.2076 14.68C18.2076 14.68 16.6392 15.3339 15.2798 14.7059C13.6653 13.96 12.962 12.2763 13.0656 12.2067Z" fill="url(#paint10_radial_4831_574)"/>
<path d="M21.6912 11.8592C21.6912 11.8592 21.3013 11.0059 20.2939 11.5532C19.2864 12.1 18.9919 14.1676 18.9082 14.5277C18.9082 14.5277 19.923 14.8199 20.6409 14.3763C21.8238 13.646 21.7569 11.9194 21.6917 11.8592L21.6912 11.8592Z" fill="url(#paint11_radial_4831_574)"/>
<path d="M16.011 14.2656C16.2578 14.256 16.4413 13.8214 16.4209 13.2948C16.4005 12.7682 16.1839 12.3491 15.9371 12.3587C15.6903 12.3682 15.5068 12.8029 15.5272 13.3294C15.5476 13.856 15.7642 14.2752 16.011 14.2656Z" fill="black"/>
<path d="M20.4978 13.8837C20.6659 13.8772 20.7856 13.445 20.7652 12.9184C20.7448 12.3918 20.592 11.9702 20.424 11.9767C20.2559 11.9832 20.1362 12.4154 20.1566 12.942C20.177 13.4686 20.3298 13.8902 20.4978 13.8837Z" fill="black"/>
<path d="M13.4497 13.0933C13.4497 13.0933 14.7505 15.5474 17.8361 14.8039C17.8361 14.8039 14.7188 15.8097 13.4497 13.0933Z" fill="#B15CF2"/>
<path style="mix-blend-mode:multiply" opacity="0.5" d="M18.206 14.6611C18.1687 14.2804 17.8037 12.2289 16.0825 11.7762C14.5174 11.3644 13.3413 12.0322 13.1087 12.1795C13.7691 11.9545 15.2263 11.7125 16.2784 12.3188C17.3564 12.9395 18.0257 14.1212 18.2065 14.6611L18.206 14.6611Z" fill="url(#paint12_linear_4831_574)"/>
<g style="mix-blend-mode:overlay" opacity="0.7">
<path d="M15.8953 12.4897C15.9262 12.3383 15.7685 12.176 15.543 12.127C15.3174 12.0781 15.1096 12.1611 15.0787 12.3124C15.0478 12.4637 15.2055 12.6261 15.431 12.6751C15.6565 12.724 15.8644 12.641 15.8953 12.4897Z" fill="white"/>
</g>
<g style="mix-blend-mode:overlay" opacity="0.7">
<path d="M20.8897 12.253C21.0507 12.1489 21.1277 11.9778 21.0619 11.8708C20.996 11.7638 20.8122 11.7615 20.6512 11.8656C20.4903 11.9698 20.4133 12.1409 20.4791 12.2479C20.545 12.3549 20.7288 12.3572 20.8897 12.253Z" fill="white"/>
</g>
<path d="M13.2163 12.684C13.2163 12.684 13.0802 12.4117 13.0659 12.3049C13.0515 12.1981 14.3978 11.4063 16.0976 11.9837C17.7973 12.561 18.1635 14.4511 18.2018 14.6209C18.2018 14.6209 18.2076 12.554 16.1533 11.7607C14.5673 11.1426 12.9229 12.0351 12.9159 12.1317C12.9089 12.2284 13.0477 12.4868 13.2163 12.6835L13.2163 12.684Z" fill="black"/>
<path d="M19.1211 14.5742C19.1211 14.5742 21.1484 15.0998 21.6527 12.7844C21.6527 12.7844 21.5954 13.6892 20.9841 14.2261C20.4491 14.6957 19.7476 14.7752 19.1216 14.5742L19.1211 14.5742Z" fill="#B15CF2"/>
<path style="mix-blend-mode:multiply" opacity="0.5" d="M20.2834 11.5757C19.2865 12.1171 18.9931 14.1572 18.9086 14.5245C18.9276 14.4593 19.4155 12.4695 20.4689 11.7651C20.9187 11.4646 21.3744 11.5907 21.6721 11.838C21.5699 11.6657 21.1348 11.1131 20.2834 11.5757Z" fill="url(#paint13_linear_4831_574)"/>
<path d="M18.9199 14.4772C18.9199 14.4772 19.3614 12.161 20.4306 11.6019C21.1139 11.2186 21.528 11.6739 21.6924 11.8581C21.6924 11.8581 21.4164 11.1187 20.6579 11.3194C19.8994 11.52 19.2486 12.4082 18.9199 14.4772Z" fill="black"/>
<path d="M12.263 14.2668C12.263 14.2668 15.3535 16.0035 18.6288 15.6282C20.5096 15.3362 21.5872 14.3285 21.9811 13.8314C21.9811 13.8314 21.4799 18.014 17.4678 18.7339C15.0186 19.0216 12.5613 16.897 12.263 14.2668Z" fill="url(#paint14_linear_4831_574)"/>
<mask id="mask0_4831_574" style="mask-type:luminance" maskUnits="userSpaceOnUse" x="12" y="13" width="10" height="6">
<path d="M12.2623 14.2661C12.2623 14.2661 15.3528 16.0028 18.6281 15.6275C20.5088 15.3354 21.5865 14.3278 21.9804 13.8307C21.9804 13.8307 21.4792 18.0133 17.467 18.7332C15.0179 19.0208 12.5606 16.8962 12.2623 14.2661Z" fill="white"/>
</mask>
<g mask="url(#mask0_4831_574)">
<path d="M12.9906 16.681C13.2033 16.4239 13.4099 16.1609 13.6077 15.8922C13.7077 15.7584 13.8038 15.6225 13.8961 15.4834C13.9873 15.345 14.0768 15.2033 14.1451 15.0547L14.1422 15.0636C14.1432 15.0603 14.1446 15.0564 14.1456 15.053C14.1517 15.0445 14.1483 15.0408 14.1703 15.0279C14.1936 15.0181 14.2095 15.028 14.2178 15.0337C14.2217 15.0363 14.2278 15.0432 14.2284 15.0443C14.2358 15.0545 14.2364 15.0572 14.2388 15.0627C14.2429 15.0713 14.2453 15.0784 14.2477 15.0854C14.2525 15.0996 14.2568 15.1126 14.2605 15.1262L14.2824 15.2052L14.3207 15.3629C14.3451 15.4677 14.3685 15.5731 14.3909 15.6779C14.436 15.8882 14.4785 16.0991 14.52 16.3101C14.6029 16.732 14.6788 17.1553 14.741 17.5819C14.7723 17.7954 14.8015 18.0091 14.8202 18.227C14.8244 18.2813 14.8282 18.3368 14.8298 18.3929L14.8302 18.4028L14.8303 18.405C14.8302 18.4039 14.8305 18.4111 14.8302 18.4028C14.8296 18.3869 14.8236 18.3711 14.8129 18.3572C14.8055 18.3465 14.7938 18.3365 14.7807 18.3304C14.7665 18.3243 14.7541 18.3237 14.752 18.3232C14.7428 18.3219 14.7311 18.324 14.7237 18.3265C14.721 18.3266 14.7152 18.3296 14.7152 18.3296C14.7152 18.3296 14.7251 18.3221 14.7318 18.3158C14.7479 18.3014 14.7655 18.2836 14.7825 18.2653C14.8515 18.1916 14.9182 18.1108 14.9831 18.029C15.2424 17.6996 15.48 17.3495 15.6935 16.9871C15.9042 16.6243 16.0967 16.2457 16.2102 15.8514C16.238 15.7529 16.2594 15.654 16.2712 15.5561L16.275 15.5168L16.2763 15.5069L16.2761 15.5019L16.2771 15.4997C16.2772 15.5019 16.2769 15.4953 16.2797 15.4842C16.3282 15.517 16.1721 15.3661 16.4927 15.4274C16.5256 15.4741 16.5171 15.4755 16.521 15.4809C16.5236 15.4907 16.5242 15.4945 16.5244 15.4978L16.5266 15.5137C16.5305 15.5466 16.5321 15.5724 16.5342 15.6004L16.5448 15.763C16.557 15.9789 16.5664 16.1939 16.5742 16.4089C16.5898 16.8395 16.6005 17.2697 16.6028 17.7014C16.6036 17.9172 16.6023 18.1331 16.5962 18.3498C16.5891 18.5671 16.5814 18.7832 16.5519 19.0074L16.5482 19.0345C16.5482 19.0345 16.5471 19.0357 16.5466 19.0357C16.5461 19.0357 16.5455 19.0346 16.5455 19.0341C16.5495 19.0141 16.5523 19.0294 16.5524 18.9787C16.5725 18.9554 16.4745 18.8375 16.4398 18.8559C16.3903 18.8523 16.3986 18.8575 16.3815 18.8604C16.3773 18.8616 16.3715 18.864 16.3688 18.8652C16.3609 18.8694 16.3609 18.8694 16.3615 18.8694L16.3714 18.8618C16.3802 18.8543 16.3906 18.8457 16.401 18.8365C16.4217 18.818 16.4429 18.7974 16.4641 18.7767C16.5065 18.7355 16.5483 18.692 16.5895 18.6474C16.6719 18.5589 16.7521 18.4671 16.83 18.3732C16.9859 18.1855 17.1323 17.9893 17.2682 17.7863C17.5396 17.3804 17.7717 16.9452 17.9245 16.486C17.9999 16.2562 18.0579 16.0216 18.0841 15.7838C18.0909 15.7246 18.0955 15.6644 18.0981 15.6059L18.0987 15.5949L18.0985 15.5894L18.0994 15.5844C18.2014 15.5986 17.8651 15.5758 18.3514 15.4948C18.3903 15.545 18.3838 15.5987 18.3843 15.5832L18.3848 15.5959L18.3853 15.6085L18.3856 15.657L18.386 15.7522L18.3836 16.1318C18.3774 16.637 18.3631 17.1414 18.3403 17.6462C18.3286 17.8983 18.3153 18.1505 18.2982 18.4028L18.271 18.7811L18.2558 18.97L18.2476 19.0634L18.2435 19.1093L18.2436 19.112C18.2434 19.1208 18.245 19.0784 18.2375 19.0649C18.2191 19.0056 18.1629 18.9687 18.1099 18.9718C18.0826 18.9729 18.0684 18.9806 18.06 18.9842C18.0552 18.9866 18.0505 18.989 18.0468 18.9919L18.0427 18.9948L18.0395 18.9971L18.0468 18.9897C18.0797 18.9532 18.1179 18.9016 18.1537 18.8539C18.1899 18.8052 18.225 18.7553 18.26 18.705C18.3302 18.6042 18.3986 18.5013 18.466 18.398C18.6002 18.1907 18.7299 17.9791 18.8536 17.7651C19.101 17.3364 19.3297 16.8958 19.5262 16.4421C19.6231 16.2153 19.7108 15.9845 19.7811 15.7494C19.8503 15.5149 19.9038 15.2749 19.9171 15.0365L19.9169 15.0315C19.9169 15.0315 19.9179 15.0282 19.9178 15.0271C19.9196 15.0182 19.919 15.0155 19.9247 14.996L19.9266 14.9904L19.9296 14.9837C19.931 14.9803 19.933 14.9764 19.935 14.973C19.9391 14.9663 19.9442 14.9594 19.9493 14.9537C19.9519 14.9509 19.955 14.948 19.9576 14.9457C19.9664 14.9382 19.979 14.93 19.9944 14.9256C20.0097 14.9206 20.0274 14.9199 20.042 14.9226C20.0561 14.9248 20.0714 14.9319 20.0725 14.933C20.0812 14.9376 20.0895 14.9439 20.0968 14.9508C20.1035 14.9571 20.1119 14.9684 20.1142 14.9721L20.1177 14.9786C20.12 14.9829 20.1218 14.9873 20.1241 14.9916L20.1271 14.9992L20.1308 15.0111L20.1346 15.0275C20.1386 15.0472 20.1413 15.0625 20.1436 15.0784C20.148 15.1101 20.1513 15.1403 20.1541 15.1705C20.1597 15.2308 20.1636 15.2902 20.167 15.3495C20.1732 15.4682 20.1761 15.5865 20.1764 15.7043C20.1775 15.9405 20.17 16.1765 20.1539 16.4118C20.1217 16.8822 20.0583 17.3505 19.9489 17.8096L19.9502 17.8024C19.9515 17.7941 19.9512 17.7853 19.9492 17.7771C19.9492 17.776 19.9455 17.7624 19.9386 17.7528C19.9323 17.7425 19.9224 17.7347 19.9136 17.7301C19.9026 17.7233 19.8874 17.7195 19.8746 17.7211C19.8714 17.7212 19.8677 17.7214 19.8645 17.7226C19.855 17.7257 19.8582 17.7256 19.8592 17.7245C19.8624 17.7227 19.8697 17.7174 19.8759 17.7128C19.8895 17.7024 19.9035 17.6897 19.9174 17.6765C19.9454 17.6501 19.9727 17.6215 19.9995 17.5918C20.053 17.5325 20.1037 17.4699 20.1527 17.4052C20.2502 17.2759 20.3404 17.1391 20.4235 16.9983C20.5902 16.7165 20.7304 16.417 20.8467 16.1085C20.9635 15.7994 21.0558 15.4803 21.1264 15.1559C21.1981 14.8316 21.2481 14.502 21.2771 14.1693C21.2769 14.1649 21.281 14.1615 21.2859 14.1618C21.2902 14.1617 21.2936 14.1659 21.2932 14.1709C21.2493 14.8378 21.1226 15.5003 20.8968 16.128C20.7845 16.4418 20.6477 16.7462 20.4834 17.035C20.401 17.1792 20.312 17.3198 20.2147 17.4535C20.1657 17.5204 20.1146 17.5857 20.0602 17.6484C20.0329 17.6797 20.0046 17.71 19.9751 17.7392C19.9601 17.7536 19.9451 17.7679 19.929 17.7812C19.9207 17.7876 19.9124 17.7945 19.9029 17.7999C19.8982 17.8028 19.8935 17.8057 19.8866 17.8076L19.8813 17.809C19.878 17.8091 19.8748 17.8081 19.8721 17.8071C19.8637 17.8003 19.8646 17.7942 19.8649 17.7892L19.8649 17.7881C19.968 17.3342 20.0268 16.8699 20.0538 16.4041C20.0673 16.1712 20.0722 15.938 20.0686 15.7047C20.0667 15.588 20.0627 15.4714 20.055 15.355C20.0511 15.2967 20.0467 15.2385 20.0413 15.1809C20.0386 15.1518 20.0348 15.1233 20.031 15.0943C20.0288 15.0801 20.0266 15.0658 20.0234 15.0522C20.0221 15.0456 20.0197 15.038 20.0184 15.0342C20.0184 15.0337 20.0179 15.0331 20.019 15.0347C20.019 15.0347 20.0201 15.0353 20.0206 15.0358C20.0206 15.0358 20.025 15.0378 20.0282 15.0366C20.0319 15.0348 20.0318 15.0337 20.0324 15.0342L20.0334 15.0331C20.0329 15.0348 20.0326 15.0386 20.0316 15.0414L20.0316 15.0403C20.0204 15.2935 19.9673 15.5417 19.8983 15.784C19.8288 16.0262 19.7419 16.262 19.6457 16.4937C19.4522 16.9566 19.2221 17.4028 18.9739 17.8364C18.8492 18.0533 18.7196 18.267 18.5844 18.4771C18.5171 18.5821 18.4482 18.6861 18.377 18.7891C18.3054 18.8915 18.2353 18.9939 18.1526 19.0902C18.1469 19.0959 18.1418 19.1022 18.1356 19.1079C18.1319 19.1108 18.1294 19.1137 18.1231 19.1172C18.1215 19.1178 18.1189 19.119 18.1146 19.1198C18.1076 19.12 18.101 19.1153 18.0986 19.1083C18.0972 19.1001 18.0982 19.0989 18.0982 19.0973L18.1022 19.0503L18.1099 18.9564L18.1246 18.7686L18.1502 18.392C18.1657 18.1409 18.1785 17.8898 18.1892 17.6383C18.21 17.1358 18.2227 16.6325 18.2268 16.129L18.2277 15.7518L18.2273 15.6576L18.2265 15.6108L18.2261 15.5993L18.2259 15.5938L18.2258 15.591C18.2258 15.591 18.2248 15.5927 18.2293 15.5981C18.2826 15.5905 18.2455 15.5886 18.2569 15.5915L18.257 15.5942L18.2567 15.6003L18.2561 15.6124C18.2532 15.6759 18.2487 15.7388 18.242 15.8019C18.2147 16.0535 18.1562 16.3008 18.0763 16.5391C17.9156 17.0172 17.6747 17.4622 17.3957 17.8766C17.2556 18.0836 17.1056 18.2833 16.9456 18.4745C16.8656 18.5701 16.7833 18.6636 16.6983 18.7545C16.6555 18.7996 16.6122 18.8443 16.5677 18.8878C16.5455 18.9096 16.5227 18.9309 16.4993 18.9516C16.4874 18.962 16.476 18.9723 16.4635 18.9822C16.4573 18.9874 16.451 18.992 16.4442 18.9967C16.4406 18.999 16.4369 19.0014 16.4327 19.0038C16.4295 19.0044 16.429 19.0066 16.4188 19.0065C16.4141 19.0083 16.4028 18.995 16.4048 18.9911C16.4046 18.9845 16.4057 18.985 16.4061 18.9822L16.4062 18.985C16.434 18.7735 16.4434 18.5589 16.4506 18.3444C16.4573 18.13 16.4597 17.9156 16.4595 17.7009C16.459 17.2719 16.4504 16.8422 16.4359 16.4132C16.4286 16.1987 16.4203 15.9842 16.4088 15.7699L16.3994 15.6095C16.3973 15.5831 16.3957 15.5562 16.3925 15.5299L16.3911 15.5206L16.3909 15.5167C16.3909 15.5167 16.3893 15.5157 16.3921 15.5194C16.424 15.5248 16.4079 15.5111 16.4129 15.5153L16.4109 15.5341L16.4066 15.574C16.3925 15.6813 16.3681 15.7864 16.3378 15.89C16.2137 16.3028 16.0134 16.6845 15.7957 17.0509C15.5754 17.4163 15.3319 17.7666 15.0658 18.098C14.9987 18.1804 14.9304 18.2618 14.8567 18.339C14.8381 18.3579 14.8195 18.3768 14.7988 18.3947C14.7884 18.4033 14.7785 18.4125 14.7654 18.4196C14.7622 18.4214 14.758 18.4232 14.7543 18.425C14.749 18.4258 14.7427 18.4288 14.7332 18.4198C14.7309 18.4166 14.7302 18.4127 14.7295 18.4089C14.7294 18.4062 14.7294 18.4051 14.7293 18.4034L14.729 18.3935C14.728 18.3401 14.7248 18.2868 14.7211 18.233C14.7048 18.0194 14.6778 17.8063 14.6491 17.5937C14.5903 17.1686 14.5202 16.7451 14.4454 16.3229C14.4077 16.1118 14.3684 15.9007 14.3269 15.6903C14.3062 15.5848 14.2844 15.48 14.2621 15.3751L14.2266 15.2184L14.2064 15.141C14.2027 15.1279 14.199 15.1154 14.1947 15.1029C14.1929 15.0969 14.1905 15.0904 14.1881 15.085C14.1869 15.0823 14.1852 15.079 14.1846 15.078C14.1857 15.0785 14.1874 15.0801 14.1916 15.0788C14.1963 15.0753 14.1942 15.0759 14.1943 15.077L14.1938 15.0787C14.1203 15.2313 14.0281 15.372 13.9336 15.5101C13.8386 15.6481 13.7392 15.783 13.637 15.9153C13.4332 16.1804 13.2205 16.4386 13.0017 16.6911C12.9986 16.6945 12.9938 16.6947 12.9904 16.6915C12.9871 16.6883 12.9869 16.6834 12.99 16.68L12.9906 16.681Z" fill="url(#paint15_linear_4831_574)"/>
<g style="mix-blend-mode:multiply" opacity="0.2">
<path d="M12.1812 14.3132C12.1876 14.3262 14.3226 16.3598 18.2586 16.0289C21.2833 15.8032 22.2225 13.509 22.2811 13.2209C22.3397 12.9328 17.0183 13.4198 17.0183 13.4198C17.0183 13.4198 11.165 12.266 12.1812 14.3132Z" fill="#50514C"/>
</g>
</g>
<path d="M12.177 14.2109C12.177 14.2109 15.1852 16.2603 18.311 15.8495C20.6638 15.5116 21.5155 14.3525 21.982 13.831C21.982 13.831 20.5345 15.3608 18.2404 15.5631C15.182 15.833 12.177 14.2109 12.177 14.2109Z" fill="black"/>
</g>
<defs>
<linearGradient id="paint0_linear_4831_574" x1="6.70986" y1="8.17924" x2="16.516" y2="17.3163" gradientUnits="userSpaceOnUse">
<stop offset="0.01" stop-color="#A26FE8"/>
<stop offset="0.43" stop-color="#7C35E8"/>
<stop offset="1" stop-color="#4F0660"/>
</linearGradient>
<linearGradient id="paint1_linear_4831_574" x1="7.00825" y1="8.47327" x2="16.4931" y2="17.3108" gradientUnits="userSpaceOnUse">
<stop stop-color="#D059EB"/>
<stop offset="1" stop-color="#991EF5"/>
</linearGradient>
<linearGradient id="paint2_linear_4831_574" x1="13.1604" y1="4.72979" x2="17.0401" y2="21.1119" gradientUnits="userSpaceOnUse">
<stop stop-color="#BE9BEE"/>
<stop offset="1" stop-color="#7326DA"/>
</linearGradient>
<linearGradient id="paint3_linear_4831_574" x1="13.0943" y1="15.5136" x2="14.5323" y2="21.5848" gradientUnits="userSpaceOnUse">
<stop offset="0.05" stop-color="#D059EB"/>
<stop offset="1" stop-color="#991EF5"/>
</linearGradient>
<linearGradient id="paint4_linear_4831_574" x1="13.905" y1="4.37287" x2="17.3301" y2="18.8361" gradientUnits="userSpaceOnUse">
<stop stop-color="white"/>
<stop offset="1" stop-color="#7326DA" stop-opacity="0"/>
</linearGradient>
<linearGradient id="paint5_linear_4831_574" x1="9.81343" y1="11.8068" x2="13.7266" y2="19.8332" gradientUnits="userSpaceOnUse">
<stop stop-color="#CA7FF8"/>
<stop offset="0.25" stop-color="#C67AF7"/>
<stop offset="0.53" stop-color="#BB6DF5"/>
<stop offset="0.81" stop-color="#A958F3"/>
<stop offset="1" stop-color="#9945F1"/>
</linearGradient>
<linearGradient id="paint6_linear_4831_574" x1="16.1571" y1="6.19618" x2="19.2581" y2="12.2219" gradientUnits="userSpaceOnUse">
<stop stop-color="#F6DBFE"/>
<stop offset="0.79" stop-color="#CB99DE"/>
</linearGradient>
<linearGradient id="paint7_linear_4831_574" x1="18.1197" y1="7.40288" x2="14.6284" y2="21.8414" gradientUnits="userSpaceOnUse">
<stop offset="0.05" stop-color="#D059EB"/>
<stop offset="1" stop-color="#991EF5"/>
</linearGradient>
<radialGradient id="paint8_radial_4831_574" cx="0" cy="0" r="1" gradientUnits="userSpaceOnUse" gradientTransform="translate(15.6372 14.5984) rotate(-2.21879) scale(8.76752 8.72117)">
<stop offset="0.07" stop-color="#E5C4D5"/>
<stop offset="0.64" stop-color="#C17DE4"/>
<stop offset="1" stop-color="#B26FE3"/>
</radialGradient>
<linearGradient id="paint9_linear_4831_574" x1="16.7318" y1="6.66272" x2="17.235" y2="19.6504" gradientUnits="userSpaceOnUse">
<stop offset="0.36" stop-color="#B63FFA"/>
<stop offset="1" stop-color="#6E1ACF"/>
</linearGradient>
<radialGradient id="paint10_radial_4831_574" cx="0" cy="0" r="1" gradientUnits="userSpaceOnUse" gradientTransform="translate(16.0349 13.6424) rotate(-2.21879) scale(2.74908 2.82128)">
<stop offset="0.16" stop-color="#FFFF00"/>
<stop offset="1" stop-color="#DBAF2D"/>
</radialGradient>
<radialGradient id="paint11_radial_4831_574" cx="0" cy="0" r="1" gradientUnits="userSpaceOnUse" gradientTransform="translate(20.2955 13.2709) rotate(-2.21879) scale(1.95819 1.92923)">
<stop offset="0.16" stop-color="#FFFF00"/>
<stop offset="1" stop-color="#DBAF2D"/>
</radialGradient>
<linearGradient id="paint12_linear_4831_574" x1="17.4682" y1="13.0293" x2="13.4439" y2="13.5294" gradientUnits="userSpaceOnUse">
<stop stop-color="#FFDC2D"/>
<stop offset="1" stop-color="#DBBB2D"/>
</linearGradient>
<linearGradient id="paint13_linear_4831_574" x1="18.8496" y1="13.0002" x2="21.7128" y2="12.8893" gradientUnits="userSpaceOnUse">
<stop stop-color="#FFDC2D"/>
<stop offset="1" stop-color="#DBBB2D"/>
</linearGradient>
<linearGradient id="paint14_linear_4831_574" x1="17.4614" y1="15.5776" x2="18.3987" y2="19.4325" gradientUnits="userSpaceOnUse">
<stop stop-color="#FFFFFD"/>
<stop offset="1" stop-color="#CCCEB7"/>
</linearGradient>
<linearGradient id="paint15_linear_4831_574" x1="16.8859" y1="14.3301" x2="18.0707" y2="19.2031" gradientUnits="userSpaceOnUse">
<stop offset="0.47" stop-color="#615F69"/>
<stop offset="0.99"/>
</linearGradient>
<clipPath id="clip0_4831_574">
<rect width="14.0512" height="15.7544" fill="white" transform="translate(0.0800781 0.0932617) rotate(12.8817)"/>
</clipPath>
<clipPath id="clip1_4831_574">
<rect width="17.2885" height="17.1327" fill="white" transform="translate(6.03345 4.5376) rotate(-2.21879)"/>
</clipPath>
<clipPath id="clip2_4831_574">
<rect width="9.81239" height="7.32035" fill="white" transform="translate(12.0769 11.6284) rotate(-2.21879)"/>
</clipPath>
</defs>
</svg>
