<svg width="21" height="22" viewBox="0 0 21 22" fill="none" xmlns="http://www.w3.org/2000/svg">
<path d="M18.6558 19.1729L13.9164 13.9938M15.9024 8.99638C15.9024 9.91515 15.7226 10.8249 15.3733 11.6738C15.024 12.5226 14.512 13.2939 13.8665 13.9436C13.221 14.5932 12.4547 15.1086 11.6113 15.4602C10.768 15.8118 9.86406 15.9928 8.95122 15.9928C8.03837 15.9928 7.13446 15.8118 6.2911 15.4602C5.44774 15.1086 4.68144 14.5932 4.03596 13.9436C3.39048 13.2939 2.87846 12.5226 2.52913 11.6738C2.1798 10.8249 2 9.91515 2 8.99638C2 7.14082 2.73236 5.36127 4.03596 4.04919C5.33957 2.73712 7.10764 2 8.95122 2C10.7948 2 12.5629 2.73712 13.8665 4.04919C15.1701 5.36127 15.9024 7.14082 15.9024 8.99638Z" stroke="#FFFFFF" stroke-width="4" stroke-linecap="round" stroke-linejoin="round"/>
</svg>
