<svg width="18" height="19" viewBox="0 0 18 19" fill="none" xmlns="http://www.w3.org/2000/svg">
<path fill-rule="evenodd" clip-rule="evenodd" d="M15.5628 16.9546H10.123C9.81255 16.9546 9.56055 16.7026 9.56055 16.3921C9.56055 16.0816 9.81255 15.8296 10.123 15.8296H15.5628C15.8733 15.8296 16.1253 16.0816 16.1253 16.3921C16.1253 16.7026 15.8733 16.9546 15.5628 16.9546Z" fill="#2A324B"/>
<mask id="mask0" style="mask-type:alpha" maskUnits="userSpaceOnUse" x="1" y="2" width="14" height="15">
<path fill-rule="evenodd" clip-rule="evenodd" d="M1.5 2.75H14.3854V16.9547H1.5V2.75Z" fill="white"/>
</mask>
<g mask="url(#mask0)">
<path fill-rule="evenodd" clip-rule="evenodd" d="M9.83271 4.26248L2.77146 13.0937C2.64321 13.2542 2.59596 13.4612 2.64321 13.66L3.15396 15.8237L5.43321 15.7952C5.64996 15.793 5.85021 15.6962 5.98296 15.5312C8.39571 12.5125 12.9955 6.75698 13.126 6.58823C13.249 6.38873 13.297 6.10673 13.2325 5.83523C13.1665 5.55698 12.9932 5.32073 12.7435 5.16998C12.6902 5.13323 11.4265 4.15223 11.3875 4.12148C10.912 3.74048 10.2182 3.80648 9.83271 4.26248ZM2.70996 16.9547C2.44971 16.9547 2.22321 16.7762 2.16246 16.522L1.54821 13.9187C1.42146 13.3795 1.54746 12.823 1.89321 12.391L8.95821 3.55448C8.96121 3.55148 8.96346 3.54773 8.96646 3.54473C9.74121 2.61848 11.1422 2.48198 12.0872 3.24023C12.1247 3.26948 13.3795 4.24448 13.3795 4.24448C13.8355 4.51598 14.1917 5.00123 14.3267 5.57573C14.461 6.14423 14.3635 6.73073 14.0507 7.22648C14.0275 7.26323 14.0072 7.29473 6.86121 16.2347C6.51696 16.6637 6.00096 16.9135 5.44671 16.9202L2.71746 16.9547H2.70996Z" fill="#2A324B"/>
</g>
<path fill-rule="evenodd" clip-rule="evenodd" d="M12.1671 9.26353C12.0471 9.26353 11.9271 9.22528 11.8243 9.14728L7.73533 6.00628C7.48933 5.81728 7.44283 5.46478 7.63183 5.21728C7.82158 4.97128 8.17408 4.92553 8.42083 5.11453L12.5106 8.25478C12.7566 8.44378 12.8031 8.79703 12.6133 9.04378C12.5031 9.18778 12.3358 9.26353 12.1671 9.26353Z" fill="#2A324B"/>
</svg>
