<svg width="69" height="69" viewBox="0 0 69 69" fill="none" xmlns="http://www.w3.org/2000/svg">
<circle opacity="0.3" cx="34.5" cy="34.5" r="34.5" fill="#DC4139"/>
<circle opacity="0.2" cx="35" cy="34" r="29" fill="#DC4139"/>
<path fill-rule="evenodd" clip-rule="evenodd" d="M48.3116 40.5853L37.8004 22.1382C37.2159 21.1125 36.169 20.5 35 20.5C33.831 20.5 32.784 21.1125 32.1995 22.1382L21.6884 40.5853C21.1039 41.6111 21.1039 42.836 21.6884 43.8618C22.2729 44.8876 23.3198 45.5 24.4888 45.5H45.5111C46.6801 45.5 47.727 44.8875 48.3116 43.8618C48.8961 42.836 48.8961 41.6111 48.3116 40.5853ZM46.9163 43.0456C46.623 43.5603 46.0977 43.8676 45.5111 43.8676H24.4888C23.9022 43.8676 23.3769 43.5603 23.0836 43.0456C22.7904 42.5309 22.7904 41.9163 23.0836 41.4016L33.5949 22.9545C33.8882 22.4398 34.4135 22.1325 35 22.1325C35.5865 22.1325 36.1119 22.4398 36.4052 22.9545L46.9164 41.4016C47.2096 41.9163 47.2096 42.5309 46.9163 43.0456ZM36.25 29.25C36.25 28.5596 35.6904 28 35 28C34.3096 28 33.75 28.5596 33.75 29.25V36.75C33.75 37.4404 34.3096 38 35 38C35.6904 38 36.25 37.4404 36.25 36.75V29.25ZM33.75 40.5C33.75 39.8107 34.3107 39.25 35 39.25C35.6893 39.25 36.25 39.8107 36.25 40.5C36.25 41.1893 35.6892 41.75 35 41.75C34.3107 41.75 33.75 41.1893 33.75 40.5Z" fill="#DC4139"/>
</svg>
