<svg width="20" height="21" viewBox="0 0 20 21" fill="none" xmlns="http://www.w3.org/2000/svg">
<path d="M9.10537 6.97368V11.5458L13.3196 14.0421L14.0264 12.8968L10.4475 10.7763V6.97368H9.10537ZM10.4475 2.5C7.28905 2.5 4.55116 4.21789 3.08379 6.76789L1.05273 4.73684V10.5526H6.86852L4.408 8.09211C5.49063 5.83737 7.76326 4.28947 10.4475 4.28947C12.2272 4.28947 13.9341 4.99647 15.1925 6.25494C16.451 7.51341 17.158 9.22026 17.158 11C17.158 12.7797 16.451 14.4866 15.1925 15.7451C13.9341 17.0035 12.2272 17.7105 10.4475 17.7105C7.52168 17.7105 5.05221 15.8405 4.13063 13.2368H2.25168C3.23589 16.8426 6.51958 19.5 10.4475 19.5C15.1359 19.5 18.9475 15.6974 18.9475 11C18.9475 9.88376 18.7276 8.77846 18.3004 7.74719C17.8733 6.71592 17.2472 5.77889 16.4579 4.98959C15.6686 4.20029 14.7315 3.57419 13.7003 3.14702C12.669 2.71986 11.5637 2.5 10.4475 2.5Z" fill="#2A324B"/>
</svg>
