<svg width="40" height="36" viewBox="0 0 40 36" fill="none" xmlns="http://www.w3.org/2000/svg">
<g filter="url(#filter0_i_2109_5850)">
<path d="M0.609014 31.4979C-0.54888 33.4979 0.894297 36.001 3.20529 36.001H36.7986C39.1096 36.001 40.5528 33.4979 39.3949 31.4979L22.5982 2.48545C21.4427 0.489599 18.5612 0.489603 17.4057 2.48546L0.609014 31.4979ZM22.002 28.001C22.002 29.1055 21.1065 30.001 20.002 30.001V30.001C18.8974 30.001 18.002 29.1055 18.002 28.001V28.001C18.002 26.8964 18.8974 26.001 20.002 26.001V26.001C21.1065 26.001 22.002 26.8964 22.002 28.001V28.001ZM22.002 20.001C22.002 21.1055 21.1065 22.001 20.002 22.001V22.001C18.8974 22.001 18.002 21.1055 18.002 20.001V16.001C18.002 14.8964 18.8974 14.001 20.002 14.001V14.001C21.1065 14.001 22.002 14.8964 22.002 16.001V20.001Z" fill="#F3B622"/>
</g>
<defs>
<filter id="filter0_i_2109_5850" x="0.201172" y="0.988281" width="39.6016" height="35.0127" filterUnits="userSpaceOnUse" color-interpolation-filters="sRGB">
<feFlood flood-opacity="0" result="BackgroundImageFix"/>
<feBlend mode="normal" in="SourceGraphic" in2="BackgroundImageFix" result="shape"/>
<feColorMatrix in="SourceAlpha" type="matrix" values="0 0 0 0 0 0 0 0 0 0 0 0 0 0 0 0 0 0 127 0" result="hardAlpha"/>
<feOffset/>
<feGaussianBlur stdDeviation="2"/>
<feComposite in2="hardAlpha" operator="arithmetic" k2="-1" k3="1"/>
<feColorMatrix type="matrix" values="0 0 0 0 0 0 0 0 0 0 0 0 0 0 0 0 0 0 0.12 0"/>
<feBlend mode="normal" in2="shape" result="effect1_innerShadow_2109_5850"/>
</filter>
</defs>
</svg>
